# 3ds Max Wavefront OBJ Exporter v0.99 - (c)2007 guruware
# File Created: 22.11.2023 13:42:15

mtllib puerta izq.mtl

#
# object Plane019
#

v  -175.8541 0.4890 491.7531
v  3.1421 0.5058 491.8023
v  -175.9045 34.8314 491.7744
v  3.0917 34.8482 491.8237
v  -175.9546 69.1738 491.7957
v  3.0420 68.9124 491.8448
v  -175.7401 69.1738 491.7958
v  -78.2231 69.1829 491.8226
v  3.0415 69.1906 491.8450
# 9 vertices

vn -0.4774 -0.0003 0.4913
vn -0.0428 -0.0007 0.5152
vn -0.0428 -0.0006 0.5152
vn -0.0428 -0.0003 0.5152
# 4 vertex normals

vt 0.0000 1.0000 0.0000
vt 0.0000 0.7500 0.0000
vt 0.2500 1.0000 0.0000
vt 0.2500 0.7500 0.0000
vt 0.5000 1.0000 0.0000
vt 0.4980 0.7500 0.0000
vt 0.5000 0.9997 0.0000
vt 0.5000 0.8635 0.0000
vt 0.5000 0.7500 0.0000
# 9 texture coords

o Plane019
g Plane019
usemtl 14___Default
s 1
f 1/1/1 2/2/1 3/3/1 
f 4/4/1 3/3/1 2/2/1 
f 3/3/1 4/4/1 5/5/1 
f 6/6/2 7/7/3 5/5/1 
f 5/5/1 4/4/1 6/6/2 
f 8/8/4 7/7/3 6/6/2 
f 9/9/2 8/8/4 6/6/2 
# 7 faces

