# 3ds Max Wavefront OBJ Exporter v0.99 - (c)2007 guruware
# File Created: 16.11.2023 02:59:39

mtllib puerta der.mtl

#
# object Plane020
#

v  3.3262 0.4890 496.6268
v  182.3224 0.5058 496.6760
v  3.2758 34.8314 496.6481
v  182.2720 34.8482 496.6973
v  3.2257 69.1738 496.6694
v  182.2223 68.9124 496.7185
v  3.4402 69.1738 496.6695
v  100.9572 69.1829 496.6963
v  182.2218 69.1906 496.7187
# 9 vertices

vn -0.4774 -0.0003 0.4913
vn -0.0428 -0.0007 0.5152
vn -0.0428 -0.0006 0.5152
vn -0.0428 -0.0003 0.5152
# 4 vertex normals

vt 0.0000 1.0000 0.0000
vt 0.0000 0.7500 0.0000
vt 0.2500 1.0000 0.0000
vt 0.2500 0.7500 0.0000
vt 0.5000 1.0000 0.0000
vt 0.4980 0.7500 0.0000
vt 0.5000 0.9997 0.0000
vt 0.5000 0.8635 0.0000
vt 0.5000 0.7500 0.0000
# 9 texture coords

o Plane020
g Plane020
usemtl 13___Default
s 1
f 1/1/1 2/2/1 3/3/1 
f 4/4/1 3/3/1 2/2/1 
f 3/3/1 4/4/1 5/5/1 
f 6/6/2 7/7/3 5/5/1 
f 5/5/1 4/4/1 6/6/2 
f 8/8/4 7/7/3 6/6/2 
f 9/9/2 8/8/4 6/6/2 
# 7 faces

